<?xml version="1.0" encoding="UTF-8"?>
<svg width="392px" height="67px" viewBox="0 0 392 67" version="1.1" xmlns="http://www.w3.org/2000/svg" xmlns:xlink="http://www.w3.org/1999/xlink">
    <title>Group 8</title>
    <g id="Page-1" stroke="none" stroke-width="1" fill="none" fill-rule="evenodd">
        <g id="Artboard" transform="translate(-33.000000, -24.000000)">
            <g id="Group-8" transform="translate(33.244920, 24.553214)">
                <path d="M8.31307971,66.2397856 C18.3300797,66.2397856 28.0820797,46.4177856 33.2230797,33.8037856 L33.5940797,32.8497856 C35.5550797,32.4787856 36.8270797,32.0017856 37.6750797,31.3657856 C38.3110797,30.8887856 38.1520797,30.2527856 37.2510797,30.7827856 C36.5620797,31.2067856 35.5020797,31.4717856 34.0710797,31.6837856 C34.5904797,30.3693856 35.1066997,29.0215956 35.6071787,27.6602376 L35.9054767,26.8419532 C40.2498621,14.8212208 43.1807197,2.05678561 36.1380797,2.05678561 C30.0960797,2.05678561 24.3190797,7.40978561 19.4960797,14.4587856 C14.3550797,21.9317856 13.3480797,28.2387856 13.3480797,31.0477856 C13.3480797,33.3267856 14.6200797,35.3937856 15.8920797,35.9237856 C16.6870797,36.2947856 17.3230797,35.8177856 16.4750797,35.2347856 C15.6270797,34.7577856 14.3020797,33.6447856 14.3020797,31.2067856 C14.3020797,28.0797856 16.6340797,21.4547856 20.9270797,15.0947856 C24.6900797,9.52978561 31.6860797,3.32878561 35.9790797,3.32878561 C40.4310797,3.32878561 41.0140797,12.2327856 32.5870797,31.9487856 C27.2340797,32.9027856 14.7260797,36.7717856 6.88207971,44.3507856 C-4.88392029,55.7457856 0.363079708,66.2397856 8.31307971,66.2397856 Z M8.15407971,65.2857856 C2.00607971,65.2857856 -1.96892029,54.6327856 7.78307971,45.1457856 C15.0970797,38.0967856 25.3790797,34.3867856 32.0570797,33.1147856 C23.1000797,53.5727856 15.1500797,65.2857856 8.15407971,65.2857856 Z M50.3420797,36.8247856 C53.8400797,36.8247856 65.0760797,31.7367856 68.5740797,29.4577856 C69.4750797,28.8747856 68.3620797,28.8217856 68.0970797,28.9807856 C64.8640797,30.7297856 54.1050797,35.7117856 50.3950797,35.7117856 C49.0170797,35.7117856 48.0630797,35.0227856 48.0630797,34.1217856 C48.0630797,32.9027856 48.5930797,31.9487856 48.5930797,31.5247856 C48.5930797,31.1537856 48.1160797,31.0477856 47.9040797,31.0477856 C47.2680797,31.0477856 45.9430797,31.7897856 43.9290797,32.7437856 C42.4450797,33.4857856 41.5440797,33.8567856 41.0670797,33.8567856 C40.9080797,33.8567856 40.8550797,33.8037856 40.8550797,33.6977856 C40.8550797,33.2737856 41.9150797,31.7367856 43.2930797,30.8357856 C44.7770797,29.8287856 45.8370797,29.4047856 46.3670797,29.4047856 C46.9500797,29.4047856 47.1090797,30.4647856 47.6390797,30.4647856 C48.1690797,30.4647856 47.4270797,28.5567856 46.2080797,28.5567856 C45.3070797,28.5567856 44.2470797,28.8217856 42.5510797,30.1467856 C40.5370797,31.6307856 39.9010797,33.0087856 39.9010797,34.0157856 C39.9010797,34.3337856 40.4310797,34.8107856 41.1730797,34.8107856 C41.7030797,34.8107856 43.3990797,34.1217856 44.9360797,33.2207856 C46.6320797,32.3197856 46.9500797,32.2667856 47.1090797,32.4257856 C47.2150797,32.5317856 47.0030797,33.0617856 47.0030797,34.1747856 C47.0030797,35.2877856 47.7450797,36.8247856 50.3420797,36.8247856 Z M83.3610797,38.2027856 C86.8590797,38.2027856 95.4980797,32.8497856 100.37408,29.6697856 C101.22208,29.1397856 100.21508,28.8217856 99.9500797,28.9807856 C99.6937524,29.1368947 99.4377055,29.2926534 99.1821377,29.4478807 L98.4170703,29.9117877 C91.9295941,33.8383714 85.8829161,37.3017856 83.5730797,37.3017856 C83.0960797,37.3017856 83.0430797,36.5067856 83.7320797,33.3267856 C84.2620797,30.8887856 84.4740797,29.3517856 84.4740797,28.7687856 C84.4740797,28.1857856 84.1560797,27.6027856 83.5730797,27.6027856 C82.7250797,27.6027856 80.8170797,29.5107856 78.8560797,31.8957856 C78.4850797,32.3727856 78.0610797,32.7967856 77.7430797,33.1147856 C77.0540797,33.9627856 76.7360797,33.7507856 76.8950797,32.9027856 L77.3720797,30.3057856 C78.0080797,26.8077856 78.3790797,24.5817856 76.8420797,24.2637856 C75.6760797,24.0517856 74.4040797,25.3767856 71.7010797,29.8287856 C69.5280797,33.4857856 68.3620797,35.6587856 68.4680797,34.8637856 C68.7330797,33.3797856 69.2630797,30.8887856 69.4220797,29.6697856 C69.5280797,28.5037856 68.0970797,28.5037856 68.0440797,29.5637856 C67.9910797,30.7297856 67.7790797,33.8567856 67.3020797,36.7187856 C67.1960797,37.4607856 67.3550797,37.8847856 67.8320797,37.8847856 C68.6800797,37.8847856 69.3690797,35.4997856 72.5490797,30.2527856 C75.4640797,25.5887856 76.1530797,25.0587856 76.7360797,25.3767856 C77.1600797,25.6417856 77.0540797,27.3377856 76.4710797,30.2527856 C75.7820797,33.9627856 75.9410797,34.5987856 76.5240797,34.7047856 C77.1600797,34.8107856 77.9550797,34.2807856 79.6510797,32.2137856 C81.0290797,30.5177856 82.8840797,28.6627856 83.2550797,28.8747856 C83.5200797,28.9807856 83.4140797,29.4577856 82.7250797,33.2737856 C82.0890797,36.8777856 81.9830797,38.2027856 83.3610797,38.2027856 Z M102.75908,23.9987856 C102.86508,23.5217856 102.54708,22.8857856 102.07008,22.7797856 C101.75208,22.7267856 101.32808,23.3097856 101.22208,23.6277856 C101.11608,23.9987856 101.32808,24.8997856 101.59308,25.0057856 C101.91108,25.0587856 102.60008,24.4757856 102.75908,23.9987856 Z M107.31708,33.0617856 C110.170058,32.0942537 112.245,31.2660717 113.710409,30.6424673 L114.09508,30.4775145 C115.327788,29.944906 116.069409,29.5862704 116.446544,29.4506143 L116.548877,29.4166559 C116.564152,29.4121274 116.578548,29.4081686 116.59208,29.4047856 C116.85708,29.2987856 116.64508,28.7687856 116.38008,28.7687856 C116.06208,28.7687856 112.08708,30.4647856 106.89308,32.3197856 C102.38808,33.9097856 100.90408,34.0687856 100.21508,34.0687856 C99.9500797,34.0687856 99.6850797,33.7507856 99.7380797,33.1147856 C99.8440797,32.2667856 100.00308,31.2597856 100.79808,29.6167856 C101.11608,29.0337856 100.79808,28.7157856 100.53308,28.7687856 C99.6320797,28.9277856 99.3670797,29.3517856 99.1550797,30.0937856 C98.8370797,30.9947856 98.6250797,32.3727856 98.6250797,33.1677856 C98.6250797,34.0157856 99.0490797,34.9697856 100.42708,34.9697856 C101.27508,34.9697856 102.49408,34.7047856 107.31708,33.0617856 Z M116.43308,36.0827856 C117.59908,36.0297856 119.77208,34.9697856 121.04408,33.5917856 C121.62708,32.9557856 121.25608,32.6907856 120.77908,33.0617856 C119.29508,34.1747856 117.81108,35.1287856 116.16808,35.1287856 C115.26708,35.1287856 114.52508,34.7577856 114.26008,34.0157856 C116.16808,33.3797856 118.12908,32.2137856 118.76508,30.5707856 C119.18908,29.3517856 118.87108,28.5037856 117.86408,28.3447856 C116.75108,28.1327856 114.63108,29.0867856 113.57108,31.5247856 C112.45808,33.9627856 113.67708,36.2947856 116.43308,36.0827856 Z M114.15408,33.3797856 C114.15408,32.9557856 114.26008,32.4787856 114.52508,31.8957856 C115.42608,29.6697856 117.12208,28.9807856 117.70508,29.1397856 C118.07608,29.2457856 118.12908,29.7227856 117.97008,30.1997856 C117.54608,31.3657856 115.69108,32.8497856 114.15408,33.3797856 Z M135.56608,48.0077856 C136.09608,47.8487856 136.09608,47.3187856 137.15608,42.1777856 L137.95108,38.0437856 C141.07808,38.7327856 145.84808,39.0507856 151.46608,38.5207856 C161.48308,37.5137856 165.82908,35.3937856 166.30608,34.8637856 C166.78308,34.3867856 166.57108,34.1217856 165.24608,34.7577856 C163.92108,35.3937856 159.57508,36.6657856 150.61808,37.3017856 C145.31808,37.6727856 140.91908,37.4607856 138.16308,36.9837856 L139.85908,27.8677856 C142.35008,24.8997856 146.11308,21.1897856 151.57208,16.7907856 C164.76908,6.08478561 172.03008,2.58678561 172.82508,0.890785606 C173.30208,-0.116214394 172.82508,-0.0632143936 172.03008,0.625785606 C171.28808,1.31478561 164.66308,3.64678561 150.14108,15.9427856 C145.84808,19.5467856 142.72108,22.5677856 140.38908,25.0587856 C140.466488,24.6382724 140.544143,24.2162728 140.621916,23.7934908 L140.77758,22.9470922 C140.985237,21.8177263 141.193111,20.6861349 141.398729,19.5656706 L141.55248,18.7276173 C143.110532,10.2328614 144.501461,2.57911455 144.62908,1.68578561 C144.89408,-0.222214394 143.41008,-0.328214394 143.30408,0.466785606 C143.207895,0.947711532 142.316499,6.78175863 141.35734,13.0176011 L141.180573,14.1663419 L141.180573,14.1663419 L141.062376,14.9338226 L141.062376,14.9338226 L140.944244,15.7002694 C140.452573,18.8888376 139.970314,21.997872 139.59408,24.3697856 L139.27608,26.2777856 C134.71808,31.5247856 134.02908,34.2277856 134.02908,35.6587856 C134.02908,36.5067856 135.14208,37.3017856 137.15608,37.8317856 C136.20208,42.6017856 135.30108,46.5767856 135.08908,47.1067856 C134.66508,47.9017856 135.03608,48.2197856 135.56608,48.0077856 Z M137.36808,36.8247856 C135.93708,36.5067856 135.14208,36.0827856 135.14208,35.6057856 C135.14208,34.9167856 135.99008,32.6907856 138.74608,29.2457856 L137.36808,36.8247856 Z M178.70808,36.8247856 C182.20608,36.8247856 193.44208,31.7367856 196.94008,29.4577856 C197.84108,28.8747856 196.72808,28.8217856 196.46308,28.9807856 C193.23008,30.7297856 182.47108,35.7117856 178.76108,35.7117856 C177.38308,35.7117856 176.42908,35.0227856 176.42908,34.1217856 C176.42908,32.9027856 176.95908,31.9487856 176.95908,31.5247856 C176.95908,31.1537856 176.48208,31.0477856 176.27008,31.0477856 C175.63408,31.0477856 174.30908,31.7897856 172.29508,32.7437856 C170.81108,33.4857856 169.91008,33.8567856 169.43308,33.8567856 C169.27408,33.8567856 169.22108,33.8037856 169.22108,33.6977856 C169.22108,33.2737856 170.28108,31.7367856 171.65908,30.8357856 C173.14308,29.8287856 174.20308,29.4047856 174.73308,29.4047856 C175.31608,29.4047856 175.47508,30.4647856 176.00508,30.4647856 C176.53508,30.4647856 175.79308,28.5567856 174.57408,28.5567856 C173.67308,28.5567856 172.61308,28.8217856 170.91708,30.1467856 C168.90308,31.6307856 168.26708,33.0087856 168.26708,34.0157856 C168.26708,34.3337856 168.79708,34.8107856 169.53908,34.8107856 C170.06908,34.8107856 171.76508,34.1217856 173.30208,33.2207856 C174.99808,32.3197856 175.31608,32.2667856 175.47508,32.4257856 C175.58108,32.5317856 175.36908,33.0617856 175.36908,34.1747856 C175.36908,35.2877856 176.11108,36.8247856 178.70808,36.8247856 Z M194.18408,57.4947856 C196.99308,57.4947856 200.22608,54.5797856 202.66408,50.2867856 C205.10208,45.9407856 206.90408,38.4677856 207.01008,33.6447856 C211.25008,30.9417856 215.27808,29.5637856 216.33808,29.5637856 C217.08008,29.5637856 216.86808,28.6627856 216.07308,28.6627856 C215.06608,28.6627856 211.14408,30.0407856 207.01008,32.4787856 C206.95708,30.8357856 206.69208,28.5567856 205.36708,28.5567856 C204.09508,28.5567856 203.19408,29.8287856 200.54408,32.6907856 C198.90108,34.5457856 197.04608,35.8707856 196.41008,35.8707856 C196.03908,35.8707856 195.98608,35.5527856 196.19808,34.6517856 C196.30408,34.2277856 196.83408,32.6377856 197.20508,31.5777856 C197.68208,30.3587856 197.84108,29.9347856 197.84108,29.5107856 C197.84108,29.3517856 197.62908,28.9277856 197.09908,28.9807856 C196.56908,29.0867856 196.83408,29.6697856 196.41008,31.0477856 C196.03908,32.1607856 195.56208,33.8567856 195.19108,35.1817856 C194.87308,36.4007856 195.50908,37.0897856 196.25108,37.0897856 C197.47008,37.0897856 199.32508,35.2347856 201.18008,33.2207856 C202.98208,31.2597856 204.25408,29.9347856 205.15508,29.9347856 C205.84408,29.9347856 205.95008,31.2597856 206.00308,33.1147856 C203.93608,34.3867856 201.86908,35.9237856 200.12008,37.7257856 C193.97208,43.9797856 190.84508,49.9157856 190.84508,53.8377856 C190.84508,56.5407856 192.75308,57.4947856 194.18408,57.4947856 Z M193.76008,56.4877856 C192.54108,56.4877856 191.90508,55.5337856 191.90508,53.9967856 C191.90508,50.9757856 194.44908,44.9337856 200.86208,38.4677856 C202.45208,36.8247856 204.20108,35.4467856 206.00308,34.2807856 C205.89708,37.8847856 204.20108,45.1987856 201.71008,49.5447856 C199.00708,54.3147856 195.72108,56.4877856 193.76008,56.4877856 Z" id="JamieKay" fill="#444444" fill-rule="nonzero"></path>
                <path d="M254.476666,45.7445514 L254.476666,39.0299037 C255.452837,40.2949823 256.859185,40.9275215 258.695711,40.9275215 C260.250967,40.9275215 261.491862,40.3253928 262.418398,39.1211353 C263.344933,37.9168779 263.808201,36.2889002 263.808201,34.2372022 L263.808201,34.2372022 L263.808201,34.0304105 C263.808201,31.9138368 263.351137,30.2595033 262.437011,29.06741 C261.522885,27.8753168 260.263376,27.2792701 258.658484,27.2792701 C256.821958,27.2792701 255.419746,27.98074 254.451848,29.3836797 L254.451848,29.3836797 L254.377394,27.5225545 L253,27.5225545 L253,45.7445514 L254.476666,45.7445514 Z M258.34826,39.6989356 C257.446543,39.6989356 256.664778,39.5002534 256.002967,39.102889 C255.341156,38.7055246 254.832389,38.1297516 254.476666,37.3755702 L254.476666,37.3755702 L254.476666,31.0623416 C254.824117,30.2432843 255.324611,29.6188545 255.978149,29.1890522 C256.631688,28.7592499 257.413452,28.5443487 258.323442,28.5443487 C259.580883,28.5443487 260.561191,29.0309174 261.264365,30.0040547 C261.967539,30.9771921 262.319126,32.3030917 262.319126,33.9817537 C262.319126,35.8388241 261.969607,37.2559554 261.270569,38.2331475 C260.571531,39.2103396 259.597428,39.6989356 258.34826,39.6989356 Z M268.57324,40.6842372 L268.57324,31.6705525 C268.912418,30.7136341 269.435662,29.9533705 270.142973,29.3897618 C270.850283,28.8261531 271.66307,28.5443487 272.581333,28.5443487 C273.681593,28.5443487 274.481971,28.8322352 274.982466,29.4080081 C275.48296,29.983781 275.737344,30.8596047 275.745616,32.035479 L275.745616,32.035479 L275.745616,40.6842372 L277.222282,40.6842372 L277.222282,32.0476432 C277.21401,30.4581855 276.858286,29.2660922 276.155112,28.4713634 C275.451938,27.6766346 274.380631,27.2792701 272.941192,27.2792701 C272.039475,27.2792701 271.208075,27.4941713 270.446992,27.9239736 C269.68591,28.353776 269.061325,28.9619868 268.57324,29.7486062 L268.57324,29.7486062 L268.57324,22 L267.096574,22 L267.096574,40.6842372 L268.57324,40.6842372 Z M286.231184,40.9275215 C287.397626,40.9275215 288.435842,40.6517993 289.345832,40.1003548 C290.255822,39.5489103 290.961065,38.7643183 291.461559,37.7465788 C291.962054,36.7288393 292.212301,35.5833756 292.212301,34.3101875 L292.212301,34.3101875 L292.212301,34.0060821 C292.212301,31.9787126 291.658034,30.3507349 290.549501,29.122149 C289.440968,27.8935631 287.993256,27.2792701 286.206366,27.2792701 C285.048197,27.2792701 284.012049,27.5610745 283.097923,28.1246832 C282.183796,28.6882919 281.476486,29.4769387 280.975991,30.4906234 C280.475497,31.5043082 280.22525,32.6436898 280.22525,33.9087684 L280.22525,33.9087684 L280.22525,34.2007096 C280.22525,36.2280791 280.781584,37.8560568 281.894254,39.0846427 C283.006924,40.3132286 284.452567,40.9275215 286.231184,40.9275215 Z M286.231184,39.6989356 C284.882744,39.6989356 283.792824,39.1941206 282.961424,38.1844906 C282.130024,37.1748606 281.714324,35.8834263 281.714324,34.3101875 L281.714324,34.3101875 L281.714324,34.0425748 C281.714324,32.3963507 282.132092,31.064369 282.967629,30.0466295 C283.803165,29.02889 284.882744,28.5200203 286.206366,28.5200203 C287.091539,28.5200203 287.877439,28.749113 288.564068,29.2072985 C289.250697,29.665484 289.784282,30.3122149 290.164823,31.1474911 C290.545365,31.9827674 290.735635,32.9031931 290.735635,33.9087684 L290.735635,33.9087684 L290.735635,34.1885454 C290.735635,35.8428789 290.319935,37.1748606 289.488535,38.1844906 C288.657135,39.1941206 287.571351,39.6989356 286.231184,39.6989356 Z M299.012409,40.9275215 C299.682493,40.9275215 300.211941,40.858591 300.600755,40.7207299 L300.600755,40.7207299 L300.538711,39.5286366 C299.984444,39.6097314 299.583221,39.6502788 299.335042,39.6502788 C298.706321,39.6502788 298.257531,39.4718702 297.98867,39.1150532 C297.719809,38.7582362 297.585379,38.2149012 297.585379,37.4850482 L297.585379,37.4850482 L297.585379,28.7146477 L300.364985,28.7146477 L300.364985,27.5225545 L297.585379,27.5225545 L297.585379,24.1530664 L296.096304,24.1530664 L296.096304,27.5225545 L293.626922,27.5225545 L293.626922,28.7146477 L296.096304,28.7146477 L296.096304,37.4972124 C296.096304,38.6244298 296.327938,39.4779524 296.791206,40.05778 C297.254474,40.6376077 297.994875,40.9275215 299.012409,40.9275215 Z M308.381171,40.9275215 C309.547613,40.9275215 310.585829,40.6517993 311.495819,40.1003548 C312.405809,39.5489103 313.111051,38.7643183 313.611546,37.7465788 C314.11204,36.7288393 314.362288,35.5833756 314.362288,34.3101875 L314.362288,34.3101875 L314.362288,34.0060821 C314.362288,31.9787126 313.808021,30.3507349 312.699487,29.122149 C311.590954,27.8935631 310.143243,27.2792701 308.356353,27.2792701 C307.198184,27.2792701 306.162036,27.5610745 305.247909,28.1246832 C304.333783,28.6882919 303.626472,29.4769387 303.125978,30.4906234 C302.625483,31.5043082 302.375236,32.6436898 302.375236,33.9087684 L302.375236,33.9087684 L302.375236,34.2007096 C302.375236,36.2280791 302.931571,37.8560568 304.044241,39.0846427 C305.15691,40.3132286 306.602554,40.9275215 308.381171,40.9275215 Z M308.381171,39.6989356 C307.032731,39.6989356 305.942811,39.1941206 305.111411,38.1844906 C304.280011,37.1748606 303.864311,35.8834263 303.864311,34.3101875 L303.864311,34.3101875 L303.864311,34.0425748 C303.864311,32.3963507 304.282079,31.064369 305.117615,30.0466295 C305.953152,29.02889 307.032731,28.5200203 308.356353,28.5200203 C309.241525,28.5200203 310.027426,28.749113 310.714054,29.2072985 C311.400683,29.665484 311.934269,30.3122149 312.31481,31.1474911 C312.695351,31.9827674 312.885622,32.9031931 312.885622,33.9087684 L312.885622,33.9087684 L312.885622,34.1885454 C312.885622,35.8428789 312.469922,37.1748606 311.638522,38.1844906 C310.807122,39.1941206 309.721338,39.6989356 308.381171,39.6989356 Z M322.266793,45.9270147 C323.92132,45.9270147 325.232533,45.4323365 326.200432,44.4429802 C327.16833,43.4536239 327.652279,42.1115053 327.652279,40.4166244 L327.652279,40.4166244 L327.652279,27.5225545 L326.262476,27.5225545 L326.188023,29.4201723 C325.236669,27.9929042 323.846866,27.2792701 322.018613,27.2792701 C320.421994,27.2792701 319.158349,27.8813989 318.227677,29.0856564 C317.297006,30.2899138 316.83167,31.9219463 316.83167,33.9817537 L316.83167,33.9817537 L316.83167,34.1763811 C316.83167,36.244298 317.30321,37.8864673 318.246291,39.102889 C319.189371,40.3193107 320.43854,40.9275215 321.993796,40.9275215 C323.813776,40.9275215 325.199442,40.2787633 326.150796,38.9812468 L326.150796,38.9812468 L326.150796,40.6355803 C326.125978,41.9087684 325.766118,42.9042068 325.071217,43.6218956 C324.376315,44.3395844 323.408417,44.6984288 322.167521,44.6984288 C320.719809,44.6984288 319.470641,44.0658895 318.420016,42.8008109 L318.420016,42.8008109 L317.588616,43.6766346 C318.076702,44.3578307 318.744717,44.9031931 319.592663,45.3127217 C320.440608,45.7222504 321.331985,45.9270147 322.266793,45.9270147 Z M322.266793,39.662443 C321.017624,39.662443 320.049726,39.1779017 319.363097,38.2088191 C318.676468,37.2397364 318.333153,35.9158642 318.333153,34.2372022 C318.333153,32.3639128 318.680604,30.9467816 319.375506,29.9858084 C320.070407,29.0248353 321.042442,28.5443487 322.29161,28.5443487 C323.209873,28.5443487 323.995774,28.765332 324.649312,29.2072985 C325.30285,29.6492651 325.803345,30.2919412 326.150796,31.1353269 L326.150796,31.1353269 L326.150796,37.253928 C325.389713,38.8596047 324.095045,39.662443 322.266793,39.662443 Z M333.00054,40.6842372 L333.00054,31.646224 C333.273537,30.6811961 333.7306,29.945261 334.371729,29.4384187 C335.012859,28.9315763 335.796691,28.6781551 336.723226,28.6781551 C337.07895,28.6781551 337.413992,28.7065383 337.728352,28.7633046 L337.728352,28.7633046 L337.765579,27.437405 C337.525672,27.3319818 337.198903,27.2792701 336.785271,27.2792701 C335.048017,27.2792701 333.78644,28.05778 333.00054,29.6147998 L333.00054,29.6147998 L332.975722,27.5225545 L331.523874,27.5225545 L331.523874,40.6842372 L333.00054,40.6842372 Z M343.21311,40.9275215 C344.114828,40.9275215 344.968978,40.7470857 345.77556,40.3862139 C346.582142,40.0253421 347.246021,39.5124176 347.767197,38.8474404 C347.80856,39.6583882 347.903696,40.2706538 348.052603,40.6842372 L348.052603,40.6842372 L349.64095,40.6842372 L349.64095,40.5382666 C349.367953,39.9057273 349.231454,38.9528637 349.231454,37.6796756 L349.231454,37.6796756 L349.231454,31.4515966 C349.206636,30.1378611 348.761982,29.1140395 347.897491,28.3801318 C347.033001,27.646224 345.852082,27.2792701 344.354734,27.2792701 C342.907023,27.2792701 341.686809,27.662443 340.694092,28.4287886 C339.701376,29.1951343 339.205018,30.1013685 339.205018,31.1474911 L339.205018,31.1474911 L340.694092,31.1596553 C340.694092,30.4298023 341.03327,29.8053725 341.711627,29.2863659 C342.389983,28.7673594 343.246201,28.5078561 344.280281,28.5078561 C345.413632,28.5078561 346.276054,28.7774962 346.867548,29.3167765 C347.459041,29.8560568 347.754788,30.5960466 347.754788,31.5367461 L347.754788,31.5367461 L347.754788,33.0329448 L345.062045,33.0329448 C343.117975,33.0329448 341.602014,33.4059807 340.514162,34.1520527 C339.426311,34.8981247 338.882385,35.9118094 338.882385,37.1931069 C338.882385,38.2716675 339.281539,39.1637101 340.079849,39.8692347 C340.878158,40.5747592 341.922579,40.9275215 343.21311,40.9275215 Z M343.386836,39.6381145 C342.493391,39.6381145 341.767467,39.3948302 341.209064,38.9082615 C340.650661,38.4216929 340.371459,37.8094273 340.371459,37.0714648 C340.371459,36.1713127 340.789228,35.4637608 341.624764,34.9488089 C342.4603,34.4338571 343.61847,34.1682717 345.099272,34.1520527 L345.099272,34.1520527 L347.754788,34.1520527 L347.754788,37.0471363 C347.399065,37.8337557 346.830321,38.4622402 346.048557,38.93259 C345.266793,39.4029397 344.379552,39.6381145 343.386836,39.6381145 Z M354.654168,45.7445514 L354.654168,39.0299037 C355.630339,40.2949823 357.036687,40.9275215 358.873213,40.9275215 C360.428469,40.9275215 361.669364,40.3253928 362.5959,39.1211353 C363.522435,37.9168779 363.985703,36.2889002 363.985703,34.2372022 L363.985703,34.2372022 L363.985703,34.0304105 C363.985703,31.9138368 363.52864,30.2595033 362.614513,29.06741 C361.700387,27.8753168 360.440878,27.2792701 358.835986,27.2792701 C356.99946,27.2792701 355.597248,27.98074 354.62935,29.3836797 L354.62935,29.3836797 L354.554896,27.5225545 L353.177502,27.5225545 L353.177502,45.7445514 L354.654168,45.7445514 Z M358.525762,39.6989356 C357.624045,39.6989356 356.84228,39.5002534 356.180469,39.102889 C355.518658,38.7055246 355.009891,38.1297516 354.654168,37.3755702 L354.654168,37.3755702 L354.654168,31.0623416 C355.001619,30.2432843 355.502113,29.6188545 356.155651,29.1890522 C356.80919,28.7592499 357.590954,28.5443487 358.500944,28.5443487 C359.758385,28.5443487 360.738693,29.0309174 361.441867,30.0040547 C362.145041,30.9771921 362.496628,32.3030917 362.496628,33.9817537 C362.496628,35.8388241 362.147109,37.2559554 361.448071,38.2331475 C360.749033,39.2103396 359.77493,39.6989356 358.525762,39.6989356 Z M368.750742,40.6842372 L368.750742,31.6705525 C369.08992,30.7136341 369.613164,29.9533705 370.320475,29.3897618 C371.027785,28.8261531 371.840572,28.5443487 372.758835,28.5443487 C373.859095,28.5443487 374.659473,28.8322352 375.159968,29.4080081 C375.660462,29.983781 375.914846,30.8596047 375.923118,32.035479 L375.923118,32.035479 L375.923118,40.6842372 L377.399784,40.6842372 L377.399784,32.0476432 C377.391512,30.4581855 377.035788,29.2660922 376.332614,28.4713634 C375.62944,27.6766346 374.558133,27.2792701 373.118694,27.2792701 C372.216977,27.2792701 371.385577,27.4941713 370.624494,27.9239736 C369.863412,28.353776 369.238827,28.9619868 368.750742,29.7486062 L368.750742,29.7486062 L368.750742,22 L367.274076,22 L367.274076,40.6842372 L368.750742,40.6842372 Z M381.556784,46 C383.095495,46 384.232983,45.2012164 384.969247,43.6036493 L384.969247,43.6036493 L385.267062,42.9224531 L391,27.5225545 L389.399245,27.5225545 L385.478015,38.5919919 L381.308605,27.5225545 L379.683032,27.5225545 L384.745886,40.5747592 L384.088211,42.3507349 C383.773851,43.2103396 383.391242,43.8165231 382.940383,44.1692854 C382.489524,44.5220476 381.900099,44.6984288 381.172107,44.6984288 L381.172107,44.6984288 L380.402752,44.6254435 L380.415161,45.829701 C380.82052,45.9432337 381.201061,46 381.556784,46 Z" id="photography" fill="#AFAFAF" fill-rule="nonzero"></path>
                <rect id="Rectangle" fill="#AFAFAF" x="232.75508" y="15.4467856" width="1" height="36" rx="0.5"></rect>
            </g>
        </g>
    </g>
</svg>